G04 #@! TF.GenerationSoftware,KiCad,Pcbnew,(5.0.0)*
G04 #@! TF.CreationDate,2019-08-13T22:51:23+09:00*
G04 #@! TF.ProjectId,wm61_mic_preamp,776D36315F6D69635F707265616D702E,rev?*
G04 #@! TF.SameCoordinates,Original*
G04 #@! TF.FileFunction,Copper,L2,Bot,Signal*
G04 #@! TF.FilePolarity,Positive*
%FSLAX46Y46*%
G04 Gerber Fmt 4.6, Leading zero omitted, Abs format (unit mm)*
G04 Created by KiCad (PCBNEW (5.0.0)) date 08/13/19 22:51:23*
%MOMM*%
%LPD*%
G01*
G04 APERTURE LIST*
G04 #@! TA.AperFunction,ComponentPad*
%ADD10R,1.350000X1.350000*%
G04 #@! TD*
G04 #@! TA.AperFunction,ComponentPad*
%ADD11O,1.350000X1.350000*%
G04 #@! TD*
G04 #@! TA.AperFunction,ComponentPad*
%ADD12O,1.700000X1.700000*%
G04 #@! TD*
G04 #@! TA.AperFunction,ComponentPad*
%ADD13R,1.700000X1.700000*%
G04 #@! TD*
G04 #@! TA.AperFunction,ViaPad*
%ADD14C,0.800000*%
G04 #@! TD*
G04 #@! TA.AperFunction,Conductor*
%ADD15C,0.250000*%
G04 #@! TD*
G04 #@! TA.AperFunction,Conductor*
%ADD16C,0.254000*%
G04 #@! TD*
G04 APERTURE END LIST*
D10*
G04 #@! TO.P,J1,1*
G04 #@! TO.N,Net-(C2-Pad1)*
X153600000Y-128500000D03*
D11*
G04 #@! TO.P,J1,2*
G04 #@! TO.N,Net-(C1-Pad2)*
X155600000Y-128500000D03*
G04 #@! TO.P,J1,3*
G04 #@! TO.N,GND*
X157600000Y-128500000D03*
G04 #@! TD*
D12*
G04 #@! TO.P,J2,2*
G04 #@! TO.N,GND*
X151650000Y-99860000D03*
D13*
G04 #@! TO.P,J2,1*
G04 #@! TO.N,Net-(J2-Pad1)*
X151650000Y-102400000D03*
G04 #@! TD*
G04 #@! TO.P,J3,1*
G04 #@! TO.N,Net-(C6-Pad1)*
X157200000Y-94950000D03*
D12*
G04 #@! TO.P,J3,2*
G04 #@! TO.N,GND*
X154660000Y-94950000D03*
G04 #@! TD*
D14*
G04 #@! TO.N,GND*
X151750000Y-107200000D03*
X151350000Y-126500000D03*
G04 #@! TO.N,Net-(C2-Pad1)*
X154550000Y-111450000D03*
X150224990Y-117975010D03*
G04 #@! TO.N,Net-(R5-Pad2)*
X157350000Y-115450000D03*
X155300000Y-117050000D03*
G04 #@! TD*
D15*
G04 #@! TO.N,Net-(C2-Pad1)*
X150224990Y-115775010D02*
X154550000Y-111450000D01*
X150224990Y-117975010D02*
X150224990Y-115775010D01*
G04 #@! TO.N,Net-(R5-Pad2)*
X156900000Y-115450000D02*
X157350000Y-115450000D01*
X155300000Y-117050000D02*
X156900000Y-115450000D01*
G04 #@! TD*
D16*
G04 #@! TO.N,GND*
G36*
X160790001Y-129790000D02*
X157727002Y-129790000D01*
X157727002Y-129644225D01*
X157929400Y-129767910D01*
X158263633Y-129629478D01*
X158645349Y-129289540D01*
X158867920Y-128829402D01*
X158745090Y-128627000D01*
X157727000Y-128627000D01*
X157727000Y-128647000D01*
X157473000Y-128647000D01*
X157473000Y-128627000D01*
X157453000Y-128627000D01*
X157453000Y-128373000D01*
X157473000Y-128373000D01*
X157473000Y-127355776D01*
X157727000Y-127355776D01*
X157727000Y-128373000D01*
X158745090Y-128373000D01*
X158867920Y-128170598D01*
X158645349Y-127710460D01*
X158263633Y-127370522D01*
X157929400Y-127232090D01*
X157727000Y-127355776D01*
X157473000Y-127355776D01*
X157270600Y-127232090D01*
X156936367Y-127370522D01*
X156613156Y-127658358D01*
X156544457Y-127555543D01*
X156111136Y-127266007D01*
X155729022Y-127190000D01*
X155470978Y-127190000D01*
X155088864Y-127266007D01*
X154795968Y-127461714D01*
X154732809Y-127367191D01*
X154522765Y-127226843D01*
X154275000Y-127177560D01*
X152925000Y-127177560D01*
X152677235Y-127226843D01*
X152467191Y-127367191D01*
X152326843Y-127577235D01*
X152277560Y-127825000D01*
X152277560Y-129175000D01*
X152326843Y-129422765D01*
X152467191Y-129632809D01*
X152677235Y-129773157D01*
X152761911Y-129790000D01*
X150210000Y-129790000D01*
X150210000Y-119010010D01*
X150430864Y-119010010D01*
X150811270Y-118852441D01*
X151102421Y-118561290D01*
X151259990Y-118180884D01*
X151259990Y-117769136D01*
X151102421Y-117388730D01*
X150984990Y-117271299D01*
X150984990Y-116844126D01*
X154265000Y-116844126D01*
X154265000Y-117255874D01*
X154422569Y-117636280D01*
X154713720Y-117927431D01*
X155094126Y-118085000D01*
X155505874Y-118085000D01*
X155886280Y-117927431D01*
X156177431Y-117636280D01*
X156335000Y-117255874D01*
X156335000Y-117089801D01*
X156999647Y-116425155D01*
X157144126Y-116485000D01*
X157555874Y-116485000D01*
X157936280Y-116327431D01*
X158227431Y-116036280D01*
X158385000Y-115655874D01*
X158385000Y-115244126D01*
X158227431Y-114863720D01*
X157936280Y-114572569D01*
X157555874Y-114415000D01*
X157144126Y-114415000D01*
X156763720Y-114572569D01*
X156599638Y-114736651D01*
X156416418Y-114859076D01*
X156352071Y-114902071D01*
X156309671Y-114965527D01*
X155260199Y-116015000D01*
X155094126Y-116015000D01*
X154713720Y-116172569D01*
X154422569Y-116463720D01*
X154265000Y-116844126D01*
X150984990Y-116844126D01*
X150984990Y-116089811D01*
X154589802Y-112485000D01*
X154755874Y-112485000D01*
X155136280Y-112327431D01*
X155427431Y-112036280D01*
X155585000Y-111655874D01*
X155585000Y-111244126D01*
X155427431Y-110863720D01*
X155136280Y-110572569D01*
X154755874Y-110415000D01*
X154344126Y-110415000D01*
X153963720Y-110572569D01*
X153672569Y-110863720D01*
X153515000Y-111244126D01*
X153515000Y-111410198D01*
X150210000Y-114715199D01*
X150210000Y-103509973D01*
X150342191Y-103707809D01*
X150552235Y-103848157D01*
X150800000Y-103897440D01*
X152500000Y-103897440D01*
X152747765Y-103848157D01*
X152957809Y-103707809D01*
X153098157Y-103497765D01*
X153147440Y-103250000D01*
X153147440Y-101550000D01*
X153098157Y-101302235D01*
X152957809Y-101092191D01*
X152747765Y-100951843D01*
X152644292Y-100931261D01*
X152921645Y-100626924D01*
X153091476Y-100216890D01*
X152970155Y-99987000D01*
X151777000Y-99987000D01*
X151777000Y-100007000D01*
X151523000Y-100007000D01*
X151523000Y-99987000D01*
X151503000Y-99987000D01*
X151503000Y-99733000D01*
X151523000Y-99733000D01*
X151523000Y-98539181D01*
X151777000Y-98539181D01*
X151777000Y-99733000D01*
X152970155Y-99733000D01*
X153091476Y-99503110D01*
X152921645Y-99093076D01*
X152531358Y-98664817D01*
X152006892Y-98418514D01*
X151777000Y-98539181D01*
X151523000Y-98539181D01*
X151293108Y-98418514D01*
X150768642Y-98664817D01*
X150378355Y-99093076D01*
X150210000Y-99499546D01*
X150210000Y-95306892D01*
X153218514Y-95306892D01*
X153464817Y-95831358D01*
X153893076Y-96221645D01*
X154303110Y-96391476D01*
X154533000Y-96270155D01*
X154533000Y-95077000D01*
X153339181Y-95077000D01*
X153218514Y-95306892D01*
X150210000Y-95306892D01*
X150210000Y-94593108D01*
X153218514Y-94593108D01*
X153339181Y-94823000D01*
X154533000Y-94823000D01*
X154533000Y-93629845D01*
X154787000Y-93629845D01*
X154787000Y-94823000D01*
X154807000Y-94823000D01*
X154807000Y-95077000D01*
X154787000Y-95077000D01*
X154787000Y-96270155D01*
X155016890Y-96391476D01*
X155426924Y-96221645D01*
X155731261Y-95944292D01*
X155751843Y-96047765D01*
X155892191Y-96257809D01*
X156102235Y-96398157D01*
X156350000Y-96447440D01*
X158050000Y-96447440D01*
X158297765Y-96398157D01*
X158507809Y-96257809D01*
X158648157Y-96047765D01*
X158697440Y-95800000D01*
X158697440Y-94100000D01*
X158648157Y-93852235D01*
X158507809Y-93642191D01*
X158297765Y-93501843D01*
X158050000Y-93452560D01*
X156350000Y-93452560D01*
X156102235Y-93501843D01*
X155892191Y-93642191D01*
X155751843Y-93852235D01*
X155731261Y-93955708D01*
X155426924Y-93678355D01*
X155016890Y-93508524D01*
X154787000Y-93629845D01*
X154533000Y-93629845D01*
X154303110Y-93508524D01*
X153893076Y-93678355D01*
X153464817Y-94068642D01*
X153218514Y-94593108D01*
X150210000Y-94593108D01*
X150210000Y-93210000D01*
X160790000Y-93210000D01*
X160790001Y-129790000D01*
X160790001Y-129790000D01*
G37*
X160790001Y-129790000D02*
X157727002Y-129790000D01*
X157727002Y-129644225D01*
X157929400Y-129767910D01*
X158263633Y-129629478D01*
X158645349Y-129289540D01*
X158867920Y-128829402D01*
X158745090Y-128627000D01*
X157727000Y-128627000D01*
X157727000Y-128647000D01*
X157473000Y-128647000D01*
X157473000Y-128627000D01*
X157453000Y-128627000D01*
X157453000Y-128373000D01*
X157473000Y-128373000D01*
X157473000Y-127355776D01*
X157727000Y-127355776D01*
X157727000Y-128373000D01*
X158745090Y-128373000D01*
X158867920Y-128170598D01*
X158645349Y-127710460D01*
X158263633Y-127370522D01*
X157929400Y-127232090D01*
X157727000Y-127355776D01*
X157473000Y-127355776D01*
X157270600Y-127232090D01*
X156936367Y-127370522D01*
X156613156Y-127658358D01*
X156544457Y-127555543D01*
X156111136Y-127266007D01*
X155729022Y-127190000D01*
X155470978Y-127190000D01*
X155088864Y-127266007D01*
X154795968Y-127461714D01*
X154732809Y-127367191D01*
X154522765Y-127226843D01*
X154275000Y-127177560D01*
X152925000Y-127177560D01*
X152677235Y-127226843D01*
X152467191Y-127367191D01*
X152326843Y-127577235D01*
X152277560Y-127825000D01*
X152277560Y-129175000D01*
X152326843Y-129422765D01*
X152467191Y-129632809D01*
X152677235Y-129773157D01*
X152761911Y-129790000D01*
X150210000Y-129790000D01*
X150210000Y-119010010D01*
X150430864Y-119010010D01*
X150811270Y-118852441D01*
X151102421Y-118561290D01*
X151259990Y-118180884D01*
X151259990Y-117769136D01*
X151102421Y-117388730D01*
X150984990Y-117271299D01*
X150984990Y-116844126D01*
X154265000Y-116844126D01*
X154265000Y-117255874D01*
X154422569Y-117636280D01*
X154713720Y-117927431D01*
X155094126Y-118085000D01*
X155505874Y-118085000D01*
X155886280Y-117927431D01*
X156177431Y-117636280D01*
X156335000Y-117255874D01*
X156335000Y-117089801D01*
X156999647Y-116425155D01*
X157144126Y-116485000D01*
X157555874Y-116485000D01*
X157936280Y-116327431D01*
X158227431Y-116036280D01*
X158385000Y-115655874D01*
X158385000Y-115244126D01*
X158227431Y-114863720D01*
X157936280Y-114572569D01*
X157555874Y-114415000D01*
X157144126Y-114415000D01*
X156763720Y-114572569D01*
X156599638Y-114736651D01*
X156416418Y-114859076D01*
X156352071Y-114902071D01*
X156309671Y-114965527D01*
X155260199Y-116015000D01*
X155094126Y-116015000D01*
X154713720Y-116172569D01*
X154422569Y-116463720D01*
X154265000Y-116844126D01*
X150984990Y-116844126D01*
X150984990Y-116089811D01*
X154589802Y-112485000D01*
X154755874Y-112485000D01*
X155136280Y-112327431D01*
X155427431Y-112036280D01*
X155585000Y-111655874D01*
X155585000Y-111244126D01*
X155427431Y-110863720D01*
X155136280Y-110572569D01*
X154755874Y-110415000D01*
X154344126Y-110415000D01*
X153963720Y-110572569D01*
X153672569Y-110863720D01*
X153515000Y-111244126D01*
X153515000Y-111410198D01*
X150210000Y-114715199D01*
X150210000Y-103509973D01*
X150342191Y-103707809D01*
X150552235Y-103848157D01*
X150800000Y-103897440D01*
X152500000Y-103897440D01*
X152747765Y-103848157D01*
X152957809Y-103707809D01*
X153098157Y-103497765D01*
X153147440Y-103250000D01*
X153147440Y-101550000D01*
X153098157Y-101302235D01*
X152957809Y-101092191D01*
X152747765Y-100951843D01*
X152644292Y-100931261D01*
X152921645Y-100626924D01*
X153091476Y-100216890D01*
X152970155Y-99987000D01*
X151777000Y-99987000D01*
X151777000Y-100007000D01*
X151523000Y-100007000D01*
X151523000Y-99987000D01*
X151503000Y-99987000D01*
X151503000Y-99733000D01*
X151523000Y-99733000D01*
X151523000Y-98539181D01*
X151777000Y-98539181D01*
X151777000Y-99733000D01*
X152970155Y-99733000D01*
X153091476Y-99503110D01*
X152921645Y-99093076D01*
X152531358Y-98664817D01*
X152006892Y-98418514D01*
X151777000Y-98539181D01*
X151523000Y-98539181D01*
X151293108Y-98418514D01*
X150768642Y-98664817D01*
X150378355Y-99093076D01*
X150210000Y-99499546D01*
X150210000Y-95306892D01*
X153218514Y-95306892D01*
X153464817Y-95831358D01*
X153893076Y-96221645D01*
X154303110Y-96391476D01*
X154533000Y-96270155D01*
X154533000Y-95077000D01*
X153339181Y-95077000D01*
X153218514Y-95306892D01*
X150210000Y-95306892D01*
X150210000Y-94593108D01*
X153218514Y-94593108D01*
X153339181Y-94823000D01*
X154533000Y-94823000D01*
X154533000Y-93629845D01*
X154787000Y-93629845D01*
X154787000Y-94823000D01*
X154807000Y-94823000D01*
X154807000Y-95077000D01*
X154787000Y-95077000D01*
X154787000Y-96270155D01*
X155016890Y-96391476D01*
X155426924Y-96221645D01*
X155731261Y-95944292D01*
X155751843Y-96047765D01*
X155892191Y-96257809D01*
X156102235Y-96398157D01*
X156350000Y-96447440D01*
X158050000Y-96447440D01*
X158297765Y-96398157D01*
X158507809Y-96257809D01*
X158648157Y-96047765D01*
X158697440Y-95800000D01*
X158697440Y-94100000D01*
X158648157Y-93852235D01*
X158507809Y-93642191D01*
X158297765Y-93501843D01*
X158050000Y-93452560D01*
X156350000Y-93452560D01*
X156102235Y-93501843D01*
X155892191Y-93642191D01*
X155751843Y-93852235D01*
X155731261Y-93955708D01*
X155426924Y-93678355D01*
X155016890Y-93508524D01*
X154787000Y-93629845D01*
X154533000Y-93629845D01*
X154303110Y-93508524D01*
X153893076Y-93678355D01*
X153464817Y-94068642D01*
X153218514Y-94593108D01*
X150210000Y-94593108D01*
X150210000Y-93210000D01*
X160790000Y-93210000D01*
X160790001Y-129790000D01*
G04 #@! TD*
M02*
